<svg width="24" height="24" viewBox="0 0 24 24" fill="none" xmlns="http://www.w3.org/2000/svg">
<g clip-path="url(#clip0_9_113)">
<path d="M21.3333 12H12C11.6464 12 11.3072 12.1405 11.0572 12.3905C10.8071 12.6406 10.6667 12.9797 10.6667 13.3333V21.3333C10.6667 21.687 10.8071 22.0261 11.0572 22.2761C11.3072 22.5262 11.6464 22.6667 12 22.6667H21.3333C21.687 22.6667 22.0261 22.5262 22.2761 22.2761C22.5262 22.0261 22.6667 21.687 22.6667 21.3333V13.3333C22.6667 12.9797 22.5262 12.6406 22.2761 12.3905C22.0261 12.1405 21.687 12 21.3333 12ZM12 21.3333V13.3333H21.3333V21.3333H12Z" fill="#6FFFE9"/>
<path d="M14 14.4667C13.8762 14.4667 13.7575 14.5158 13.67 14.6034C13.5825 14.6909 13.5333 14.8096 13.5333 14.9333V19.9267C13.5333 20.0504 13.5825 20.1691 13.67 20.2567C13.7575 20.3442 13.8762 20.3933 14 20.3933C14.1238 20.3933 14.2425 20.3442 14.33 20.2567C14.4175 20.1691 14.4667 20.0504 14.4667 19.9267V14.9333C14.4667 14.8096 14.4175 14.6909 14.33 14.6034C14.2425 14.5158 14.1238 14.4667 14 14.4667Z" fill="#6FFFE9"/>
<path d="M16.6667 14.5467C16.5429 14.5467 16.4242 14.5958 16.3367 14.6833C16.2492 14.7709 16.2 14.8896 16.2 15.0133V20C16.2 20.1238 16.2492 20.2425 16.3367 20.33C16.4242 20.4175 16.5429 20.4667 16.6667 20.4667C16.7904 20.4667 16.9091 20.4175 16.9967 20.33C17.0842 20.2425 17.1333 20.1238 17.1333 20V15.0133C17.1333 14.8896 17.0842 14.7709 16.9967 14.6833C16.9091 14.5958 16.7904 14.5467 16.6667 14.5467Z" fill="#6FFFE9"/>
<path d="M19.3333 14.4667C19.2096 14.4667 19.0909 14.5158 19.0034 14.6034C18.9158 14.6909 18.8667 14.8096 18.8667 14.9333V19.9267C18.8667 20.0504 18.9158 20.1691 19.0034 20.2567C19.0909 20.3442 19.2096 20.3933 19.3333 20.3933C19.4571 20.3933 19.5758 20.3442 19.6633 20.2567C19.7508 20.1691 19.8 20.0504 19.8 19.9267V14.9333C19.8 14.8096 19.7508 14.6909 19.6633 14.6034C19.5758 14.5158 19.4571 14.4667 19.3333 14.4667Z" fill="#6FFFE9"/>
<path d="M12 10.6667H18.6667V5.41333C18.6667 4.29333 15.08 3.41333 10.6667 3.41333C6.25334 3.41333 2.66667 4.29333 2.66667 5.41333V18.6667C2.66667 19.6667 5.55334 20.5 9.33334 20.6667V16.8133C7.52421 16.7762 5.72911 16.4867 4.00001 15.9533V14.96L4.16 15.0267C5.83271 15.5656 7.57616 15.8532 9.33334 15.88V13.3333C9.33548 12.9974 9.40107 12.6649 9.52667 12.3533C7.65232 12.3321 5.79087 12.0402 4.00001 11.4867V10.5L4.16 10.56C6.10126 11.1671 8.12617 11.4641 10.16 11.44C10.6501 10.9538 11.3097 10.6765 12 10.6667ZM4.00001 7.02667V6.03333L4.16 6.09333C6.26554 6.74394 8.46382 7.0435 10.6667 6.98C12.9277 7.06633 15.1858 6.74568 17.3333 6.03333V7.03333C15.1704 7.67151 12.9211 7.96841 10.6667 7.91333C8.41181 7.96723 6.16239 7.66806 4.00001 7.02667Z" fill="#6FFFE9"/>
</g>
<defs>
<clipPath id="clip0_9_113">
<rect width="24" height="24" fill="white"/>
</clipPath>
</defs>
</svg>
