<svg width="20" height="20" viewBox="0 0 20 20" fill="none" xmlns="http://www.w3.org/2000/svg">
<g clip-path="url(#clip0_2_1544)">
<path d="M15.8334 5.00008C15.8334 4.77907 15.7456 4.56711 15.5893 4.41083C15.433 4.25455 15.2211 4.16675 15 4.16675H8.33337C8.11236 4.16675 7.9004 4.25455 7.74412 4.41083C7.58784 4.56711 7.50004 4.77907 7.50004 5.00008C7.50004 5.2211 7.58784 5.43306 7.74412 5.58934C7.9004 5.74562 8.11236 5.83341 8.33337 5.83341H12.9884L4.69671 14.1251C4.54491 14.2823 4.46091 14.4928 4.46281 14.7112C4.46471 14.9297 4.55235 15.1388 4.70686 15.2933C4.86137 15.4478 5.07038 15.5354 5.28887 15.5373C5.50737 15.5392 5.71787 15.4552 5.87504 15.3034L14.1667 7.01175V11.6667C14.1667 11.8878 14.2545 12.0997 14.4108 12.256C14.5671 12.4123 14.779 12.5001 15 12.5001C15.2211 12.5001 15.433 12.4123 15.5893 12.256C15.7456 12.0997 15.8334 11.8878 15.8334 11.6667V5.00008Z" fill="#919191"/>
</g>
<defs>
<clipPath id="clip0_2_1544">
<rect width="20" height="20" fill="white" transform="matrix(-1 0 0 1 20 0)"/>
</clipPath>
</defs>
</svg>
