<svg width="20" height="20" viewBox="0 0 20 20" fill="none" xmlns="http://www.w3.org/2000/svg">
<g clip-path="url(#clip0_2_1550)">
<path d="M15.8333 5.00008C15.8333 4.77907 15.7455 4.56711 15.5892 4.41083C15.4329 4.25455 15.2209 4.16675 14.9999 4.16675H8.33325C8.11224 4.16675 7.90028 4.25455 7.744 4.41083C7.58772 4.56711 7.49992 4.77907 7.49992 5.00008C7.49992 5.2211 7.58772 5.43306 7.744 5.58934C7.90028 5.74562 8.11224 5.83341 8.33325 5.83341H12.9883L4.69658 14.1251C4.54479 14.2823 4.46079 14.4928 4.46269 14.7112C4.46459 14.9297 4.55223 15.1388 4.70674 15.2933C4.86124 15.4478 5.07025 15.5354 5.28875 15.5373C5.50725 15.5392 5.71775 15.4552 5.87492 15.3034L14.1666 7.01175V11.6667C14.1666 11.8878 14.2544 12.0997 14.4107 12.256C14.5669 12.4123 14.7789 12.5001 14.9999 12.5001C15.2209 12.5001 15.4329 12.4123 15.5892 12.256C15.7455 12.0997 15.8333 11.8878 15.8333 11.6667V5.00008Z" fill="#919191"/>
</g>
<defs>
<clipPath id="clip0_2_1550">
<rect width="20" height="20" fill="white" transform="matrix(-1 0 0 1 20 0)"/>
</clipPath>
</defs>
</svg>
